<svg width="0" height="0" class="hidden">
  <symbol xmlns="http://www.w3.org/2000/svg" viewBox="0 0 490.8 490.8" id="arrow-right">
    <path d="M135.685 3.128c-4.237-4.093-10.99-3.975-15.083.262-3.992 4.134-3.992 10.687 0 14.82l227.115 227.136-227.136 227.115c-4.237 4.093-4.354 10.845-.262 15.083 4.093 4.237 10.845 4.354 15.083.262.089-.086.176-.173.262-.262l234.667-234.667c4.164-4.165 4.164-10.917 0-15.083L135.685 3.128z" fill="#f44336"></path>
    <path d="M128.133 490.68a10.667 10.667 0 01-7.552-18.219l227.136-227.115L120.581 18.232c-4.171-4.171-4.171-10.933 0-15.104 4.171-4.171 10.933-4.171 15.104 0l234.667 234.667c4.164 4.165 4.164 10.917 0 15.083L135.685 487.544a10.663 10.663 0 01-7.552 3.136z"></path>
  </symbol>
  <symbol xmlns="http://www.w3.org/2000/svg" viewBox="0 0 490.787 490.787" id="arrow-left">
    <path d="M362.671 490.787a10.663 10.663 0 01-7.552-3.115L120.452 253.006c-4.164-4.165-4.164-10.917 0-15.083L355.119 3.256c4.093-4.237 10.845-4.354 15.083-.262 4.237 4.093 4.354 10.845.262 15.083-.086.089-.173.176-.262.262L143.087 245.454l227.136 227.115c4.171 4.16 4.179 10.914.019 15.085a10.67 10.67 0 01-7.571 3.133z" fill="#f44336"></path>
    <path d="M362.671 490.787a10.663 10.663 0 01-7.552-3.115L120.452 253.006c-4.164-4.165-4.164-10.917 0-15.083L355.119 3.256c4.093-4.237 10.845-4.354 15.083-.262 4.237 4.093 4.354 10.845.262 15.083-.086.089-.173.176-.262.262L143.087 245.454l227.136 227.115c4.171 4.16 4.179 10.914.019 15.085a10.67 10.67 0 01-7.571 3.133z"></path>
  </symbol>
  <symbol xmlns="http://www.w3.org/2000/svg" viewBox="0 0 365.717 365" id="close">
    <g fill="#f44336">
      <path d="M356.34 296.348L69.727 9.734c-12.5-12.5-32.766-12.5-45.247 0L9.375 24.816c-12.5 12.504-12.5 32.77 0 45.25L295.988 356.68c12.504 12.5 32.77 12.5 45.25 0l15.082-15.082c12.524-12.48 12.524-32.75.02-45.25zm0 0"></path>
      <path d="M295.988 9.734L9.375 296.348c-12.5 12.5-12.5 32.77 0 45.25l15.082 15.082c12.504 12.5 32.77 12.5 45.25 0L356.34 70.086c12.504-12.5 12.504-32.766 0-45.246L341.258 9.758c-12.5-12.524-32.766-12.524-45.27-.024zm0 0"></path>
    </g>
  </symbol>
</svg>